Coordinates
version=1
nRows=21
nColumns=22
inDegrees=yes

Units are S.I. units (second, meters, Newtons, ...)
If the header above contains a line with 'inDegrees', this indicates whether rotational values are in degrees (yes) or radians (no).

endheader
time	pelvis_tilt	pelvis_list	pelvis_rotation	pelvis_tx	pelvis_ty	pelvis_tz	hip_flexion_r	hip_adduction_r	hip_rotation_r	knee_angle_r	ankle_angle_r	subtalar_angle_r	hip_flexion_l	hip_adduction_l	hip_rotation_l	knee_angle_l	ankle_angle_l	subtalar_angle_l	lumbar_extension	lumbar_bending	lumbar_rotation
      0.01000000	     -0.99590858	     -4.07790295	    -13.72643161	     -1.45897772	      1.02459105	     -0.14879062	      2.63345330	      6.39528659	     -0.35979049	    -12.29657901	      8.85546089	     -2.86728269	      1.17545604	     -3.40656526	    -17.45359569	    -11.21773937	     12.03087539	     -3.70441703	     -9.03266701	      3.43849102	      1.03682920
      0.02000000	     -0.99323744	     -4.10048453	    -13.65843770	     -1.45887671	      1.02459082	     -0.14867494	      2.60289235	      6.42818854	     -0.41298776	    -12.26678010	      8.82823371	     -2.89221498	      1.18409654	     -3.44549920	    -17.40830492	    -11.24778051	     12.06239964	     -3.74428101	     -9.04394861	      3.46201856	      0.98194380
      0.03000000	     -0.98373561	     -4.09422838	    -13.59147408	     -1.45877315	      1.02458850	     -0.14853755	      2.59142683	      6.42928922	     -0.48282484	    -12.27631648	      8.84596215	     -2.92334308	      1.17135478	     -3.44427100	    -17.33012884	    -11.23371616	     12.06321858	     -3.78326208	     -9.05684594	      3.44950967	      0.94093932
      0.04000000	     -0.97417999	     -4.08921998	    -13.51201716	     -1.45868198	      1.02458275	     -0.14839797	      2.57666489	      6.43350581	     -0.54738993	    -12.27931997	      8.86397963	     -2.94608681	      1.17128857	     -3.44935867	    -17.25413227	    -11.24166537	     12.06608255	     -3.81031302	     -9.07399276	      3.43866560	      0.89704125
      0.05000000	     -0.96502442	     -4.07960650	    -13.41921401	     -1.45859433	      1.02457240	     -0.14827035	      2.56428912	      6.43299444	     -0.62504333	    -12.28243276	      8.88153093	     -2.96646598	      1.17358787	     -3.44894172	    -17.16275450	    -11.24568903	     12.06406828	     -3.83027289	     -9.08950404	      3.42475403	      0.84908873
      0.06000000	     -0.95644673	     -4.06834185	    -13.31527952	     -1.45852680	      1.02455854	     -0.14815448	      2.55397111	      6.43140341	     -0.71057902	    -12.28421860	      8.89982386	     -2.98441401	      1.18181884	     -3.44743135	    -17.06036050	    -11.25235468	     12.05448659	     -3.84007982	     -9.10546722	      3.41036246	      0.79635191
      0.07000000	     -0.94890365	     -4.05514774	    -13.19992463	     -1.45847508	      1.02454136	     -0.14805572	      2.54592679	      6.42770868	     -0.80705447	    -12.28444603	      8.91648428	     -3.00071799	      1.19570038	     -3.44425296	    -16.94420810	    -11.26049385	     12.03739529	     -3.83675022	     -9.12067742	      3.39520334	      0.74034636
      0.08000000	     -0.94172442	     -4.04115436	    -13.07109283	     -1.45843531	      1.02452383	     -0.14797623	      2.53906731	      6.42298059	     -0.91655150	    -12.28347932	      8.93325490	     -3.01690748	      1.21419944	     -3.44033586	    -16.81326065	    -11.26993184	     12.01401489	     -3.82040712	     -9.13345149	      3.38020547	      0.67649488
      0.09000000	     -0.93539528	     -4.02611872	    -12.92787530	     -1.45840648	      1.02450625	     -0.14792591	      2.53233304	      6.41602369	     -1.03814316	    -12.27904486	      8.94934147	     -3.03361907	      1.23843343	     -3.43523986	    -16.66855905	    -11.28135603	     11.98800920	     -3.79539406	     -9.14556357	      3.36527411	      0.60954933
      0.10000000	     -0.93060814	     -4.00955261	    -12.77195667	     -1.45838638	      1.02448969	     -0.14791020	      2.52662184	      6.40662575	     -1.16981398	    -12.26972294	      8.96540083	     -3.05092383	      1.26577014	     -3.42736475	    -16.51529646	    -11.28884154	     11.96252059	     -3.76729833	     -9.15792955	      3.35220517	      0.53905680
      0.11000000	     -0.92339587	     -3.99159000	    -12.60658219	     -1.45834317	      1.02448088	     -0.14791293	      2.51626736	      6.39420617	     -1.30509021	    -12.25954664	      8.98246527	     -3.06753041	      1.28981722	     -3.41642363	    -16.35474985	    -11.29458654	     11.93443020	     -3.74080047	     -9.16471035	      3.33645435	      0.47356047
      0.12000000	     -0.91591073	     -3.96990510	    -12.43450114	     -1.45830025	      1.02448127	     -0.14794071	      2.50627076	      6.37661920	     -1.44699231	    -12.24773340	      9.00006707	     -3.08403575	      1.30731061	     -3.39835661	    -16.19164304	    -11.28225591	     11.90390530	     -3.71670128	     -9.17512273	      3.31782345	      0.40498351
      0.13000000	     -0.90407138	     -3.94340783	    -12.26833929	     -1.45823308	      1.02449417	     -0.14797546	      2.48926069	      6.35199703	     -1.57958827	    -12.23268302	      9.01947864	     -3.09914651	      1.31279485	     -3.37167261	    -16.04013184	    -11.25853714	     11.86828623	     -3.69728047	     -9.18601123	      3.29255410	      0.35811460
      0.14000000	     -0.88628146	     -3.91188552	    -12.11333350	     -1.45813921	      1.02452215	     -0.14801099	      2.46652557	      6.32043139	     -1.69613452	    -12.22103788	      9.03985682	     -3.11186617	      1.30061626	     -3.33521213	    -15.90828064	    -11.21761032	     11.82814424	     -3.68178137	     -9.19837223	      3.26150560	      0.32983818
      0.15000000	     -0.86116810	     -3.87375560	    -11.96584150	     -1.45803356	      1.02456367	     -0.14805706	      2.43518821	      6.27891864	     -1.80915696	    -12.20637091	      9.06474156	     -3.12352672	      1.27221836	     -3.28635476	    -15.78547764	    -11.16070407	     11.78053081	     -3.66787344	     -9.21996436	      3.22106120	      0.31669049
      0.16000000	     -0.82895424	     -3.83109814	    -11.82941240	     -1.45791793	      1.02461526	     -0.14810249	      2.39698531	      6.23067714	     -1.91050914	    -12.19323922	      9.09173678	     -3.13357732	      1.22911010	     -3.22921577	    -15.67856284	    -11.09281130	     11.73022632	     -3.65549592	     -9.24679691	      3.17538412	      0.31961555
      0.17000000	     -0.79037960	     -3.78596876	    -11.69579604	     -1.45780971	      1.02467412	     -0.14815284	      2.35386598	      6.17846405	     -2.00766458	    -12.18173858	      9.12185034	     -3.14325770	      1.17626711	     -3.16735472	    -15.57813929	    -11.01891726	     11.67657749	     -3.64334486	     -9.28294765	      3.12579164	      0.32481235
      0.18000000	     -0.75092940	     -3.73997812	    -11.56139711	     -1.45771830	      1.02472985	     -0.14820742	      2.31077047	      6.12495205	     -2.10857772	    -12.16997939	      9.15226514	     -3.15280302	      1.12405202	     -3.10457143	    -15.47473010	    -10.94592968	     11.62413395	     -3.63074097	     -9.32068490	      3.07504441	      0.33239513
      0.19000000	     -0.71609931	     -3.69640618	    -11.42002071	     -1.45765351	      1.02477402	     -0.14826408	      2.27242834	      6.07632228	     -2.21569497	    -12.15649518	      9.18180417	     -3.16261136	      1.08350243	     -3.04815779	    -15.36577648	    -10.88305287	     11.57460808	     -3.61806993	     -9.35727450	      3.02765487	      0.33385839
      0.20000000	     -0.68763446	     -3.65541108	    -11.26823066	     -1.45762136	      1.02480537	     -0.14833313	      2.24359214	      6.03193276	     -2.33640434	    -12.14490994	      9.20865161	     -3.17290242	      1.05578823	     -2.99684679	    -15.24126963	    -10.82694333	     11.52714013	     -3.60495401	     -9.39078763	      2.98390066	      0.31918352
      0.21000000	     -0.66747044	     -3.61671984	    -11.10420427	     -1.45761889	      1.02482463	     -0.14841773	      2.22420403	      5.99153643	     -2.47270025	    -12.13171284	      9.23256206	     -3.18292782	      1.04465435	     -2.95165483	    -15.09951879	    -10.77927063	     11.48186290	     -3.59214737	     -9.41693869	      2.94560030	      0.29104059
